<svg version="1.1" id="Layer_1" xmlns="http://www.w3.org/2000/svg" xmlns:xlink="http://www.w3.org/1999/xlink" x="0px" y="0px"
	 width="100%" viewBox="0 0 512 512" enable-background="new 0 0 512 512" xml:space="preserve">
<path fill="#FFFFFF" opacity="1.000000" stroke="none" 
	d="
M325.000000,513.000000 
	C282.645782,513.000000 240.291550,513.000000 197.570129,512.645630 
	C198.290436,511.210510 199.966599,510.314758 200.373322,509.020203 
	C203.984497,497.526184 202.229492,486.719238 196.048264,476.420105 
	C194.548065,473.920502 193.153000,470.860168 193.132187,468.047150 
	C192.920105,439.398071 193.002518,410.746796 193.002518,382.096161 
	C193.002518,380.490082 193.002533,378.883972 193.002533,377.002502 
	C204.307068,377.002502 215.103973,377.024139 225.900742,376.995422 
	C234.095200,376.973633 238.090820,370.605042 235.054993,362.989746 
	C230.582382,351.770386 226.393951,340.437744 222.112747,329.227417 
	C233.827209,322.674225 239.338577,313.706268 237.906113,300.933868 
	C237.299805,295.527710 235.962997,290.141541 234.392075,284.916473 
	C228.323822,264.732971 226.612961,244.159821 228.428864,223.214752 
	C235.446503,222.397537 237.562408,216.094421 235.725098,210.858276 
	C228.890106,191.379211 227.053101,170.210083 215.641388,151.556488 
	C216.969467,152.250702 217.829498,152.573364 218.544342,153.095016 
	C222.463058,155.954758 226.252975,159.000610 230.263779,161.722244 
	C236.014938,165.624863 242.689102,163.622650 243.895676,156.915878 
	C246.597366,141.898529 245.003708,127.141663 238.589584,113.136467 
	C232.984344,100.897499 223.795166,91.957138 212.421432,85.008629 
	C211.227463,84.279198 210.340576,82.379227 210.107132,80.896980 
	C209.726944,78.482903 209.977234,75.965057 210.007462,73.491562 
	C210.170609,60.146675 205.996017,47.990063 198.905228,36.984810 
	C190.198303,23.471214 178.876175,12.629091 163.476456,6.894582 
	C157.425079,4.641187 151.165024,2.948198 145.000000,1.000000 
	C222.020889,1.000000 299.041779,1.000000 376.394287,1.384240 
	C368.375244,4.521020 359.543213,6.318295 351.777649,10.231799 
	C337.157593,17.599669 326.397186,29.483654 319.487885,44.234322 
	C312.990906,58.104683 310.454590,72.765564 312.858124,88.312790 
	C315.304382,104.136192 320.956360,118.226585 332.260834,129.615875 
	C338.148438,135.547684 344.805878,140.715408 350.850952,145.997055 
	C342.302338,145.997055 333.148438,146.276154 324.019043,145.922577 
	C313.850739,145.528763 303.579407,153.959671 301.074402,162.131439 
	C296.236053,177.914825 291.634583,193.774170 287.188782,209.673035 
	C285.091614,217.172943 287.720581,221.554611 296.166382,224.218582 
	C294.780914,242.290894 294.060699,260.745575 291.756531,279.000336 
	C289.754364,294.862457 293.418030,307.839569 306.241943,317.617584 
	C309.998962,320.482269 314.421051,322.474762 318.597809,324.901550 
	C317.475677,331.293976 316.211761,337.937500 315.163452,344.614899 
	C314.005035,351.993744 312.838989,359.382446 312.071503,366.807709 
	C311.584778,371.516693 313.469696,375.193909 318.643036,376.109589 
	C321.958466,376.696442 325.321472,377.014557 328.682281,377.455658 
	C328.777618,377.748566 328.960297,378.048065 328.960510,378.347687 
	C328.981567,409.170807 328.995453,439.993958 328.970032,470.817047 
	C328.969147,471.906494 328.922821,473.283142 328.303833,474.040588 
	C321.803741,481.994720 320.496948,491.213287 320.876556,501.114929 
	C321.051544,505.679413 321.065399,509.912231 325.000000,513.000000 
z"/>
<path fill="#010101" opacity="1.000000" stroke="none" 
	d="
M144.531372,1.000000 
	C151.165024,2.948198 157.425079,4.641187 163.476456,6.894582 
	C178.876175,12.629091 190.198303,23.471214 198.905228,36.984810 
	C205.996017,47.990063 210.170609,60.146675 210.007462,73.491562 
	C209.977234,75.965057 209.726944,78.482903 210.107132,80.896980 
	C210.340576,82.379227 211.227463,84.279198 212.421432,85.008629 
	C223.795166,91.957138 232.984344,100.897499 238.589584,113.136467 
	C245.003708,127.141663 246.597366,141.898529 243.895676,156.915878 
	C242.689102,163.622650 236.014938,165.624863 230.263779,161.722244 
	C226.252975,159.000610 222.463058,155.954758 218.544342,153.095016 
	C217.829498,152.573364 216.969467,152.250702 215.641388,151.556488 
	C227.053101,170.210083 228.890106,191.379211 235.725098,210.858276 
	C237.562408,216.094421 235.446503,222.397537 228.428864,223.214752 
	C226.612961,244.159821 228.323822,264.732971 234.392075,284.916473 
	C235.962997,290.141541 237.299805,295.527710 237.906113,300.933868 
	C239.338577,313.706268 233.827209,322.674225 222.112747,329.227417 
	C226.393951,340.437744 230.582382,351.770386 235.054993,362.989746 
	C238.090820,370.605042 234.095200,376.973633 225.900742,376.995422 
	C215.103973,377.024139 204.307068,377.002502 193.002533,377.002502 
	C193.002533,378.883972 193.002518,380.490082 193.002518,382.096161 
	C193.002518,410.746796 192.920105,439.398071 193.132187,468.047150 
	C193.153000,470.860168 194.548065,473.920502 196.048264,476.420105 
	C202.229492,486.719238 203.984497,497.526184 200.373322,509.020203 
	C199.966599,510.314758 198.290436,511.210510 197.101471,512.645630 
	C154.645767,513.000000 112.291542,513.000000 69.381760,512.649963 
	C65.420876,510.032654 64.932991,506.806885 64.882172,502.898773 
	C64.757759,493.333252 64.919777,484.031372 70.930756,475.809875 
	C72.230751,474.031830 72.900452,471.385864 72.911880,469.134888 
	C73.045441,442.832458 72.997467,416.529083 72.997467,390.225983 
	C72.997467,385.941956 72.997467,381.657928 72.997467,377.002838 
	C71.803024,377.002838 71.014465,377.002869 70.225914,377.002838 
	C60.070919,377.002747 49.915791,377.033661 39.760971,376.991730 
	C32.873985,376.963257 28.717409,371.387024 31.017778,364.952423 
	C34.895298,354.106232 38.823425,343.268188 43.169601,332.605804 
	C44.405861,329.572906 43.902325,328.442383 41.287167,326.989380 
	C32.627533,322.178009 26.338812,310.123383 28.077282,301.325623 
	C29.320971,295.031769 31.040022,288.821930 32.761536,282.634308 
	C38.158394,263.236328 40.694786,243.565353 38.515949,223.387131 
	C32.109901,222.190994 28.745457,217.115723 31.220507,209.793655 
	C37.600731,190.918640 39.703938,170.613190 50.457962,153.035629 
	C51.386658,152.488510 51.933029,151.981888 52.479401,151.475266 
	C52.282173,151.222015 52.084946,150.968765 51.887722,150.715515 
	C51.068790,151.216339 50.249859,151.717148 49.163147,152.445480 
	C43.505432,156.128098 38.349468,160.053986 32.650124,162.886505 
	C28.242910,165.076843 22.179100,161.305801 22.129017,156.470413 
	C22.031681,147.072968 21.621000,137.486847 23.214422,128.304123 
	C26.440523,109.712463 36.464893,95.350014 53.132126,85.832817 
	C54.654289,84.963638 55.855812,82.158585 55.865940,80.245392 
	C55.919792,70.069870 57.313801,60.252571 60.925774,50.648037 
	C67.788376,32.399826 79.573624,18.449766 96.935661,9.759125 
	C104.518631,5.963434 112.952530,3.867715 121.000000,0.999999 
	C128.687576,1.000000 136.375168,1.000000 144.531372,1.000000 
M211.261551,149.772202 
	C212.151413,149.942032 213.041290,150.111847 213.931152,150.281677 
	C213.990189,150.063278 214.049210,149.844879 214.108231,149.626480 
	C213.327026,149.220627 212.545837,148.814774 211.311249,147.883194 
	C206.555954,144.201523 201.800659,140.519836 197.006531,136.125458 
	C199.995071,131.648743 202.983597,127.172043 206.311646,122.186760 
	C213.425308,127.370193 219.840591,132.044739 227.114777,137.345123 
	C225.298157,121.554398 218.600403,110.336777 206.580948,102.433571 
	C203.337814,108.604347 200.654160,114.489555 197.261810,119.933128 
	C194.230240,124.797760 190.416626,129.175018 186.320740,134.075424 
	C181.346390,137.948563 176.372040,141.821701 171.009018,145.997467 
	C175.021744,145.997467 178.500809,145.859192 181.965485,146.023865 
	C191.675446,146.485352 201.687790,144.175827 211.261551,149.772202 
M79.928329,133.156891 
	C71.466972,124.261765 64.684090,114.233513 60.427711,102.605881 
	C48.106552,109.330185 37.956245,127.077385 41.096642,136.064621 
	C46.504723,132.088867 51.750229,128.084854 57.191311,124.367081 
	C58.185387,123.687836 60.764278,123.566696 61.270401,124.222710 
	C64.377403,128.249771 67.098778,132.574341 69.317444,137.108810 
	C65.011925,140.460403 60.706406,143.812012 57.117172,146.606033 
	C69.820320,146.606033 82.695572,146.606033 96.190880,146.606033 
	C90.105698,141.784409 85.076729,137.799667 79.928329,133.156891 
M191.104324,67.284569 
	C191.196899,67.328888 191.289490,67.373207 191.382065,67.417519 
	C191.254715,67.278343 191.127350,67.139168 191.086426,66.166222 
	C190.242859,57.280006 186.300201,49.703430 181.143082,42.640587 
	C169.926392,27.279011 154.517853,18.935534 135.821823,18.227257 
	C112.023438,17.325684 93.925781,28.405087 81.557495,48.424252 
	C77.908119,54.331100 74.919640,60.989723 75.179276,69.054291 
	C83.280296,69.054291 91.107651,68.531807 98.840599,69.164009 
	C114.519394,70.445808 127.052406,65.070572 137.309616,53.296936 
	C142.111801,47.784801 147.501205,42.762871 152.831589,37.738499 
	C157.872147,32.987293 164.405640,34.600548 166.864227,40.987659 
	C167.340942,42.226116 167.609909,43.544708 168.089325,44.781918 
	C172.318222,55.694988 179.103668,63.986778 191.104324,67.284569 
M111.500053,265.762756 
	C105.335373,265.762787 99.154953,266.030243 93.011559,265.668610 
	C88.931396,265.428467 87.234184,267.006104 85.848663,270.719208 
	C78.580070,290.198334 70.998100,309.560486 63.541134,328.969452 
	C59.747517,338.843445 55.987789,348.730499 52.165455,358.735413 
	C106.444778,358.735413 160.108704,358.735413 214.203339,358.735413 
	C213.741974,357.272491 213.500397,356.332489 213.153854,355.432983 
	C202.210587,327.027832 191.191483,298.651459 180.392990,270.191437 
	C179.123215,266.844879 177.605499,265.641907 173.979797,265.674316 
	C153.487915,265.857330 132.993546,265.762543 111.500053,265.762756 
M78.021591,100.391838 
	C84.212708,114.964935 94.413002,125.688980 108.911179,132.119263 
	C114.136932,134.436996 116.436768,137.986176 116.198830,143.787033 
	C115.890327,151.308319 116.807358,152.414948 123.865448,154.837341 
	C130.371857,157.070374 136.897400,156.925873 143.420685,154.551849 
	C148.286072,152.781204 151.229187,150.187622 150.343872,144.346619 
	C149.428452,138.307037 152.474091,134.627258 157.969345,131.845963 
	C163.688904,128.951157 169.291794,125.386238 174.045731,121.113091 
	C184.515762,111.701920 190.415924,99.683495 192.244461,85.453049 
	C176.037643,81.986275 163.937561,73.377899 155.131119,58.316483 
	C152.185196,61.669910 149.609497,64.674316 146.956802,67.609138 
	C134.930664,80.914253 119.990685,87.059822 102.029137,86.326447 
	C92.917160,85.954399 83.777466,86.261375 73.830177,86.261375 
	C75.284760,91.137772 76.552849,95.388939 78.021591,100.391838 
M99.051155,192.494507 
	C99.051155,182.751877 99.051155,173.009247 99.051155,163.368088 
	C95.881943,163.368088 93.612358,163.368088 91.207008,163.368088 
	C91.207008,191.721436 91.207008,219.758392 91.207008,247.957031 
	C119.530945,247.957031 147.447601,247.957031 175.658615,247.957031 
	C175.658615,219.623383 175.658615,191.573563 175.658615,163.403687 
	C172.780640,163.403687 170.225952,163.403687 167.203781,163.403687 
	C167.203781,165.548798 167.204071,167.347061 167.203735,169.145325 
	C167.201462,180.976959 167.272278,192.809235 167.167770,204.639969 
	C167.110092,211.169937 164.179276,214.098602 157.645630,214.131653 
	C141.315079,214.214310 124.983521,214.212708 108.652977,214.127670 
	C102.425758,214.095261 99.274971,210.831192 99.075722,204.488968 
	C98.960655,200.826416 99.052498,197.157349 99.051155,192.494507 
M125.002533,383.577576 
	C125.002533,408.891663 125.845207,434.246490 124.623253,459.501465 
	C124.067986,470.977509 129.936981,479.090820 133.253250,488.092804 
	C134.696182,485.054596 135.774246,481.575287 137.805435,478.791443 
	C140.843689,474.627472 141.061676,470.164551 141.044754,465.351013 
	C140.947586,437.705719 140.997482,410.059875 140.997482,382.414246 
	C140.997482,380.658600 140.997467,378.902985 140.997467,377.323853 
	C135.284790,377.323853 130.216095,377.323853 125.002533,377.323853 
	C125.002533,379.296631 125.002533,380.948730 125.002533,383.577576 
M90.639084,394.501953 
	C90.639084,417.213715 90.639084,439.925446 90.639084,462.368439 
	C96.639053,462.368439 102.021713,462.368439 107.431740,462.368439 
	C107.431740,433.924561 107.431740,405.395782 107.431740,376.763397 
	C101.728874,376.763397 96.351128,376.763397 90.639160,376.763397 
	C90.639160,382.568024 90.639160,388.035736 90.639084,394.501953 
M158.927673,394.500916 
	C158.927673,417.254974 158.927673,440.009033 158.927673,462.344604 
	C164.886978,462.344604 170.270691,462.344604 175.691040,462.344604 
	C175.691040,433.955780 175.691040,405.393066 175.691040,376.741089 
	C170.000275,376.741089 164.590271,376.741089 158.927673,376.741089 
	C158.927673,382.529144 158.927673,388.015472 158.927673,394.500916 
M54.373688,266.757660 
	C51.740974,278.076385 49.115425,289.396790 46.472580,300.713135 
	C45.102528,306.579498 46.366104,309.576202 51.676205,312.322296 
	C57.199093,297.916870 61.847057,283.136810 68.449806,269.288788 
	C75.627350,254.235214 72.855339,238.785782 73.606506,223.141403 
	C67.721001,223.141403 62.310200,223.141403 57.266266,223.141403 
	C56.389366,237.549881 55.524948,251.753250 54.373688,266.757660 
M192.996353,241.495026 
	C192.996506,249.101837 192.889099,256.519531 196.046127,263.922119 
	C202.221725,278.402618 207.497299,293.266602 213.171341,307.961853 
	C213.751205,309.463593 214.507065,310.897400 215.254013,312.520874 
	C219.660645,309.985168 221.333282,306.614594 220.211426,301.944305 
	C219.591415,299.363129 218.976425,296.779755 218.421936,294.183990 
	C214.445908,275.570496 208.189514,257.317719 209.968796,237.809189 
	C210.413712,232.931091 210.035339,227.977890 210.035339,223.251404 
	C203.969574,223.251404 198.573105,223.251404 192.996353,223.251404 
	C192.996353,229.216339 192.996353,234.857010 192.996353,241.495026 
M150.262161,183.502274 
	C150.262161,179.311295 150.262161,175.120316 150.262161,170.289764 
	C138.445541,174.762680 127.411827,174.237534 116.375305,170.545624 
	C116.375305,179.691116 116.375305,188.262665 116.375305,196.824097 
	C127.816208,196.824097 138.990311,196.824097 150.262161,196.824097 
	C150.262161,192.467926 150.262161,188.484390 150.262161,183.502274 
M73.496544,164.164978 
	C67.875580,161.679108 62.906990,163.908417 60.982372,170.085510 
	C58.817211,177.034653 56.931545,184.071091 54.938118,191.073486 
	C53.567657,195.887558 52.220737,200.708328 50.841755,205.602539 
	C58.743019,205.602539 65.963890,205.602539 73.579178,205.602539 
	C73.579178,191.887909 73.579178,178.472046 73.496544,164.164978 
M192.995407,203.261261 
	C193.809204,204.137054 194.599823,205.745895 195.440460,205.772461 
	C202.060333,205.981720 208.689774,205.888641 215.814163,205.888641 
	C212.478500,194.210983 209.271744,182.932297 206.032364,171.662994 
	C203.951035,164.422363 200.957001,162.526825 192.994736,163.575668 
	C192.994736,176.451996 192.994736,189.374939 192.995407,203.261261 
M172.357101,479.721283 
	C160.341568,476.867035 149.752670,484.811584 151.527451,495.689819 
	C162.155563,495.689819 172.833313,495.689819 183.472824,495.689819 
	C184.411011,488.492676 181.483215,484.163666 172.357101,479.721283 
M109.363327,495.993042 
	C111.448486,495.993042 113.533638,495.993042 115.605194,495.993042 
	C115.648865,485.903168 107.830849,478.612854 98.201302,479.004700 
	C89.377220,479.363739 81.964188,487.171417 82.641998,495.993011 
	C91.190521,495.993011 99.792778,495.993011 109.363327,495.993042 
M54.635742,148.055847 
	C54.365284,148.571274 54.094826,149.086685 53.824371,149.602112 
	C54.422470,149.650833 55.020565,149.699554 55.618664,149.748291 
	C55.595516,149.173737 55.572369,148.599197 54.635742,148.055847 
z"/>
<path fill="#010202" opacity="1.000000" stroke="none" 
	d="
M325.468658,513.000000 
	C321.065399,509.912231 321.051544,505.679413 320.876556,501.114929 
	C320.496948,491.213287 321.803741,481.994720 328.303833,474.040588 
	C328.922821,473.283142 328.969147,471.906494 328.970032,470.817047 
	C328.995453,439.993958 328.981567,409.170807 328.960510,378.347687 
	C328.960297,378.048065 328.777618,377.748566 328.682281,377.455658 
	C325.321472,377.014557 321.958466,376.696442 318.643036,376.109589 
	C313.469696,375.193909 311.584778,371.516693 312.071503,366.807709 
	C312.838989,359.382446 314.005035,351.993744 315.163452,344.614899 
	C316.211761,337.937500 317.475677,331.293976 318.597809,324.901550 
	C314.421051,322.474762 309.998962,320.482269 306.241943,317.617584 
	C293.418030,307.839569 289.754364,294.862457 291.756531,279.000336 
	C294.060699,260.745575 294.780914,242.290894 296.166382,224.218582 
	C287.720581,221.554611 285.091614,217.172943 287.188782,209.673035 
	C291.634583,193.774170 296.236053,177.914825 301.074402,162.131439 
	C303.579407,153.959671 313.850739,145.528763 324.019043,145.922577 
	C333.148438,146.276154 342.302338,145.997055 350.850952,145.997055 
	C344.805878,140.715408 338.148438,135.547684 332.260834,129.615875 
	C320.956360,118.226585 315.304382,104.136192 312.858124,88.312790 
	C310.454590,72.765564 312.990906,58.104683 319.487885,44.234322 
	C326.397186,29.483654 337.157593,17.599669 351.777649,10.231799 
	C359.543213,6.318295 368.375244,4.521020 376.862946,1.384240 
	C384.687592,1.000000 392.375153,1.000000 400.674316,1.388877 
	C415.631500,3.059826 428.084747,9.141626 438.675079,18.364277 
	C460.901001,37.719769 470.099304,62.170338 464.990417,91.520660 
	C461.729950,110.251869 453.206512,125.954765 437.879272,137.620438 
	C434.377991,140.285309 430.861450,142.930115 426.805939,145.997055 
	C436.160706,145.997055 444.815430,146.416580 453.411682,145.886887 
	C463.324158,145.276093 475.168030,152.940979 478.110870,164.064850 
	C482.130096,179.257446 486.635437,194.323730 491.082764,209.399811 
	C493.336731,217.040466 491.489868,221.108276 482.926575,223.983215 
	C484.305389,245.184021 485.704163,266.716675 487.107117,288.249054 
	C487.521362,294.606659 485.719086,300.357513 482.678467,305.890350 
	C477.638947,315.060608 469.715637,320.607056 459.957001,324.310516 
	C460.837250,329.976227 461.792419,335.535400 462.547974,341.121582 
	C463.768677,350.146698 464.892395,359.185425 465.987030,368.226898 
	C466.465363,372.177979 464.711700,375.063660 460.888031,375.954620 
	C457.137970,376.828400 453.224579,377.001129 449.312653,377.490356 
	C449.268555,377.542908 449.070557,377.668640 449.070404,377.794525 
	C449.038910,408.619568 449.006378,439.444641 449.051666,470.269592 
	C449.053711,471.656860 449.356812,473.399536 450.208984,474.373749 
	C457.415253,482.612335 458.367889,492.440979 458.078217,502.763275 
	C457.955383,507.138824 456.357513,510.412750 453.000000,513.000000 
	C410.645782,513.000000 368.291534,513.000000 325.468658,513.000000 
M447.104340,67.283768 
	C447.196655,67.328194 447.289001,67.372627 447.381317,67.417068 
	C447.254211,67.278145 447.127106,67.139221 447.085449,66.166451 
	C446.242279,57.280743 442.300476,49.704254 437.143127,42.642265 
	C425.923035,27.278618 410.464691,18.946699 391.810150,18.247238 
	C368.064941,17.356905 349.896118,28.369095 337.553070,48.430115 
	C333.915070,54.342957 330.914825,60.993206 331.183685,69.053101 
	C340.621613,69.053101 349.752197,68.727234 358.850281,69.131821 
	C371.529449,69.695641 381.815979,65.188560 390.452667,56.091862 
	C396.413330,49.813694 402.563110,43.703743 408.836639,37.737610 
	C413.854218,32.965900 420.407166,34.601093 422.865234,40.988686 
	C423.341797,42.227131 423.610809,43.545624 424.090302,44.782719 
	C428.319763,55.694496 435.104675,63.986156 447.104340,67.283768 
M437.146149,292.302216 
	C436.053253,284.739136 434.887817,277.185455 433.901947,269.608459 
	C433.487823,266.425415 431.812225,265.697662 428.829559,265.708466 
	C402.346466,265.803986 375.862610,265.811798 349.379639,265.701263 
	C346.222961,265.688110 345.230316,266.620392 344.756500,269.816589 
	C341.346375,292.819183 337.649597,315.779144 334.081696,338.758575 
	C333.051208,345.395416 332.145081,352.051544 331.165985,358.809143 
	C347.958893,358.809143 364.172974,358.809143 381.085693,358.809143 
	C381.085693,341.741516 381.085693,325.046631 381.085693,308.448425 
	C387.038025,308.448425 392.278839,308.448425 398.169373,308.448425 
	C398.169373,325.517761 398.169373,342.221771 398.169373,358.882202 
	C414.762726,358.882202 430.691254,358.882202 447.483795,358.882202 
	C444.042480,336.691772 440.667664,314.930084 437.146149,292.302216 
M373.408783,148.878952 
	C382.927765,152.889084 392.390533,155.261688 402.400696,149.964966 
	C405.076355,148.549179 406.686310,147.557648 406.307892,144.292801 
	C405.601166,138.195465 408.377258,134.311356 414.078278,131.912735 
	C422.662842,128.300888 429.821716,122.602669 435.608429,115.308937 
	C442.534210,106.579437 447.001343,96.792488 448.176086,85.431747 
	C431.961365,81.970207 419.893707,73.309830 411.149323,58.365932 
	C408.659821,61.243107 406.499603,63.760178 404.317596,66.258263 
	C391.503418,80.928932 375.403015,87.461372 355.938232,86.342903 
	C347.523865,85.859406 339.058563,86.261848 330.243835,86.261848 
	C333.455963,105.341499 342.638824,120.079941 359.107941,128.881149 
	C367.690002,133.467484 373.708435,138.060684 373.408783,148.878952 
M431.968567,210.500061 
	C431.968567,203.113174 431.968567,195.726288 431.968567,187.662506 
	C428.476990,189.968781 425.726349,191.779205 422.982208,193.599426 
	C415.119720,198.814758 412.679535,198.613434 406.132935,192.038818 
	C400.622589,186.504913 395.166779,180.916672 389.385925,175.046997 
	C383.082947,181.363342 377.131500,187.395157 371.102112,193.348053 
	C366.322845,198.066666 362.953094,198.391068 357.345581,194.779785 
	C353.952240,192.594406 350.614655,190.322464 346.918640,187.868042 
	C346.918640,208.453415 346.918640,228.225266 346.918640,248.146332 
	C358.244293,248.146332 369.306793,248.146332 380.848572,248.146332 
	C380.848572,228.286026 380.848572,208.712097 380.848572,189.094833 
	C386.734161,189.094833 392.132690,189.094833 397.961426,189.094833 
	C397.961426,208.968506 397.961426,228.557999 397.961426,248.176331 
	C409.471222,248.176331 420.542450,248.176331 431.968567,248.176331 
	C431.968567,235.777542 431.968567,223.638794 431.968567,210.500061 
M396.997070,459.491577 
	C396.997070,432.079681 396.997070,404.667786 396.997070,377.272766 
	C391.387573,377.272766 386.318359,377.272766 381.003174,377.272766 
	C381.003174,408.821655 381.000854,440.101349 381.016296,471.381073 
	C381.016693,472.183502 380.978577,473.122284 381.354309,473.766602 
	C384.204803,478.654388 387.154236,483.484528 389.610016,487.563873 
	C392.762421,479.395905 399.506653,471.149292 396.997070,459.491577 
M363.752197,450.476959 
	C363.752197,425.926361 363.752197,401.375763 363.752197,376.788971 
	C357.679932,376.788971 352.304749,376.788971 346.978790,376.788971 
	C346.978790,405.657440 346.978790,434.157745 346.978790,462.361816 
	C352.691833,462.361816 358.063110,462.361816 363.752197,462.361816 
	C363.752197,458.754150 363.752197,455.109283 363.752197,450.476959 
M431.968018,381.698425 
	C431.968018,380.086731 431.968018,378.475006 431.968018,376.714905 
	C426.048218,376.714905 420.629211,376.714905 415.192627,376.714905 
	C415.192627,405.581329 415.192627,434.170258 415.192627,462.344666 
	C420.851288,462.344666 426.243530,462.344666 431.968018,462.344666 
	C431.968018,435.922363 431.968018,409.287811 431.968018,381.698425 
M324.059296,291.724030 
	C328.122314,269.095703 331.341431,246.405289 329.084961,223.162613 
	C323.674805,223.162613 318.260468,223.162613 312.415680,223.162613 
	C312.415680,225.372879 312.503296,227.344543 312.401825,229.306427 
	C311.611786,244.580444 310.833069,259.855408 309.937500,275.123383 
	C309.703979,279.104950 308.794403,283.055023 308.678131,287.033661 
	C308.414520,296.054291 313.831726,303.677063 321.854889,305.906525 
	C322.565887,301.460022 323.274323,297.029449 324.059296,291.724030 
M455.886749,300.606445 
	C456.151062,302.370392 456.415375,304.134369 456.689941,305.966766 
	C466.434357,302.730377 471.414429,293.370331 469.608124,282.229828 
	C467.288177,267.921631 465.303467,253.598434 465.993530,239.027420 
	C466.242767,233.763901 466.033539,228.478699 466.033539,223.192749 
	C460.096680,223.192749 454.694275,223.192749 449.565399,223.192749 
	C446.737671,249.290268 451.604523,274.493164 455.886749,300.606445 
M308.049957,205.877808 
	C315.109100,205.877808 322.168274,205.877808 329.214081,205.877808 
	C329.214081,191.252457 329.214081,177.263260 329.214081,163.244034 
	C323.788269,162.598495 319.067169,163.575836 317.449005,168.852951 
	C313.723785,181.001297 310.587341,193.330139 308.049957,205.877808 
M469.875305,198.808304 
	C467.220428,189.545685 464.607178,180.270874 461.896698,171.024567 
	C459.944855,164.366257 456.192657,162.259232 449.241760,163.710449 
	C449.241760,177.649384 449.241760,191.579880 449.241760,205.890350 
	C453.104980,205.890350 456.733459,205.890366 460.361938,205.890366 
	C463.970032,205.890366 467.578125,205.890350 471.634064,205.890350 
	C471.009033,203.446091 470.522430,201.543137 469.875305,198.808304 
M367.251068,495.992340 
	C368.698853,495.900421 370.146667,495.808502 371.557495,495.718903 
	C371.830658,486.285004 364.242279,478.895935 354.796997,479.002228 
	C345.680939,479.104767 338.143341,486.694733 338.550995,495.992371 
	C347.776428,495.992371 357.040955,495.992371 367.251068,495.992340 
M408.048737,495.789520 
	C418.602356,495.789520 429.155975,495.789520 441.317902,495.789520 
	C439.343811,491.455566 438.320953,487.968109 436.348755,485.143524 
	C432.465759,479.582397 423.925537,477.508820 417.480133,480.009186 
	C410.534851,482.703491 406.607849,488.616547 408.048737,495.789520 
M351.867523,170.644211 
	C355.421295,172.974228 358.975067,175.304245 361.934235,177.244400 
	C365.756134,173.596725 369.185791,170.323410 372.656860,167.010559 
	C364.571381,162.300171 355.765930,162.708755 347.030487,163.289139 
	C345.425507,167.755249 349.049042,168.520111 351.867523,170.644211 
M431.967682,165.931442 
	C431.435211,164.980515 430.931274,163.220169 430.365906,163.200226 
	C422.005280,162.905228 413.550934,162.320160 406.057007,167.001938 
	C409.431732,170.479095 412.799103,173.948624 416.389069,177.647552 
	C421.635498,173.944077 426.741760,170.339554 431.967682,165.931442 
z"/>
<path fill="#FFFFFF" opacity="1.000000" stroke="none" 
	d="
M453.468658,513.000000 
	C456.357513,510.412750 457.955383,507.138824 458.078217,502.763275 
	C458.367889,492.440979 457.415253,482.612335 450.208984,474.373749 
	C449.356812,473.399536 449.053711,471.656860 449.051666,470.269592 
	C449.006378,439.444641 449.038910,408.619568 449.070404,377.794525 
	C449.070557,377.668640 449.268555,377.542908 449.312653,377.490356 
	C453.224579,377.001129 457.137970,376.828400 460.888031,375.954620 
	C464.711700,375.063660 466.465363,372.177979 465.987030,368.226898 
	C464.892395,359.185425 463.768677,350.146698 462.547974,341.121582 
	C461.792419,335.535400 460.837250,329.976227 459.957001,324.310516 
	C469.715637,320.607056 477.638947,315.060608 482.678467,305.890350 
	C485.719086,300.357513 487.521362,294.606659 487.107117,288.249054 
	C485.704163,266.716675 484.305389,245.184021 482.926575,223.983215 
	C491.489868,221.108276 493.336731,217.040466 491.082764,209.399811 
	C486.635437,194.323730 482.130096,179.257446 478.110870,164.064850 
	C475.168030,152.940979 463.324158,145.276093 453.411682,145.886887 
	C444.815430,146.416580 436.160706,145.997055 426.805939,145.997055 
	C430.861450,142.930115 434.377991,140.285309 437.879272,137.620438 
	C453.206512,125.954765 461.729950,110.251869 464.990417,91.520660 
	C470.099304,62.170338 460.901001,37.719769 438.675079,18.364277 
	C428.084747,9.141626 415.631500,3.059826 401.142944,1.388877 
	C438.309448,1.000000 475.618896,1.000000 512.949829,1.000000 
	C512.949829,171.666672 512.949829,342.333344 512.949829,513.000000 
	C493.245514,513.000000 473.591400,513.000000 453.468658,513.000000 
z"/>
<path fill="#FFFFFF" opacity="1.000000" stroke="none" 
	d="
M120.531342,0.999999 
	C112.952530,3.867715 104.518631,5.963434 96.935661,9.759125 
	C79.573624,18.449766 67.788376,32.399826 60.925774,50.648037 
	C57.313801,60.252571 55.919792,70.069870 55.865940,80.245392 
	C55.855812,82.158585 54.654289,84.963638 53.132126,85.832817 
	C36.464893,95.350014 26.440523,109.712463 23.214422,128.304123 
	C21.621000,137.486847 22.031681,147.072968 22.129017,156.470413 
	C22.179100,161.305801 28.242910,165.076843 32.650124,162.886505 
	C38.349468,160.053986 43.505432,156.128098 49.315109,152.666931 
	C49.848450,152.799301 49.962044,152.937698 50.075642,153.076111 
	C39.703938,170.613190 37.600731,190.918640 31.220507,209.793655 
	C28.745457,217.115723 32.109901,222.190994 38.515949,223.387131 
	C40.694786,243.565353 38.158394,263.236328 32.761536,282.634308 
	C31.040022,288.821930 29.320971,295.031769 28.077282,301.325623 
	C26.338812,310.123383 32.627533,322.178009 41.287167,326.989380 
	C43.902325,328.442383 44.405861,329.572906 43.169601,332.605804 
	C38.823425,343.268188 34.895298,354.106232 31.017778,364.952423 
	C28.717409,371.387024 32.873985,376.963257 39.760971,376.991730 
	C49.915791,377.033661 60.070919,377.002747 70.225914,377.002838 
	C71.014465,377.002869 71.803024,377.002838 72.997467,377.002838 
	C72.997467,381.657928 72.997467,385.941956 72.997467,390.225983 
	C72.997467,416.529083 73.045441,442.832458 72.911880,469.134888 
	C72.900452,471.385864 72.230751,474.031830 70.930756,475.809875 
	C64.919777,484.031372 64.757759,493.333252 64.882172,502.898773 
	C64.932991,506.806885 65.420876,510.032654 68.913101,512.649963 
	C46.347507,513.000000 23.695011,513.000000 1.021259,513.000000 
	C1.021259,342.454224 1.021259,171.908432 1.021259,1.000000 
	C40.686825,1.000000 80.374756,1.000000 120.531342,0.999999 
z"/>
<path fill="#4B6378" opacity="1.000000" stroke="none" 
	d="
M112.000046,265.762573 
	C132.993546,265.762543 153.487915,265.857330 173.979797,265.674316 
	C177.605499,265.641907 179.123215,266.844879 180.392990,270.191437 
	C191.191483,298.651459 202.210587,327.027832 213.153854,355.432983 
	C213.500397,356.332489 213.741974,357.272491 214.203339,358.735413 
	C160.108704,358.735413 106.444778,358.735413 52.165455,358.735413 
	C55.987789,348.730499 59.747517,338.843445 63.541134,328.969452 
	C70.998100,309.560486 78.580070,290.198334 85.848663,270.719208 
	C87.234184,267.006104 88.931396,265.428467 93.011559,265.668610 
	C99.154953,266.030243 105.335373,265.762787 112.000046,265.762573 
z"/>
<path fill="#FDE9D9" opacity="1.000000" stroke="none" 
	d="
M77.921265,100.015976 
	C76.552849,95.388939 75.284760,91.137772 73.830177,86.261375 
	C83.777466,86.261375 92.917160,85.954399 102.029137,86.326447 
	C119.990685,87.059822 134.930664,80.914253 146.956802,67.609138 
	C149.609497,64.674316 152.185196,61.669910 155.131119,58.316483 
	C163.937561,73.377899 176.037643,81.986275 192.244461,85.453049 
	C190.415924,99.683495 184.515762,111.701920 174.045731,121.113091 
	C169.291794,125.386238 163.688904,128.951157 157.969345,131.845963 
	C152.474091,134.627258 149.428452,138.307037 150.343872,144.346619 
	C151.229187,150.187622 148.286072,152.781204 143.420685,154.551849 
	C136.897400,156.925873 130.371857,157.070374 123.865448,154.837341 
	C116.807358,152.414948 115.890327,151.308319 116.198830,143.787033 
	C116.436768,137.986176 114.136932,134.436996 108.911179,132.119263 
	C94.413002,125.688980 84.212708,114.964935 77.921265,100.015976 
z"/>
<path fill="#4A6277" opacity="1.000000" stroke="none" 
	d="
M99.051186,192.992859 
	C99.052498,197.157349 98.960655,200.826416 99.075722,204.488968 
	C99.274971,210.831192 102.425758,214.095261 108.652977,214.127670 
	C124.983521,214.212708 141.315079,214.214310 157.645630,214.131653 
	C164.179276,214.098602 167.110092,211.169937 167.167770,204.639969 
	C167.272278,192.809235 167.201462,180.976959 167.203735,169.145325 
	C167.204071,167.347061 167.203781,165.548798 167.203781,163.403687 
	C170.225952,163.403687 172.780640,163.403687 175.658615,163.403687 
	C175.658615,191.573563 175.658615,219.623383 175.658615,247.957031 
	C147.447601,247.957031 119.530945,247.957031 91.207008,247.957031 
	C91.207008,219.758392 91.207008,191.721436 91.207008,163.368088 
	C93.612358,163.368088 95.881943,163.368088 99.051155,163.368088 
	C99.051155,173.009247 99.051155,182.751877 99.051186,192.992859 
z"/>
<path fill="#373737" opacity="1.000000" stroke="none" 
	d="
M191.000000,67.000046 
	C179.103668,63.986778 172.318222,55.694988 168.089325,44.781918 
	C167.609909,43.544708 167.340942,42.226116 166.864227,40.987659 
	C164.405640,34.600548 157.872147,32.987293 152.831589,37.738499 
	C147.501205,42.762871 142.111801,47.784801 137.309616,53.296936 
	C127.052406,65.070572 114.519394,70.445808 98.840599,69.164009 
	C91.107651,68.531807 83.280296,69.054291 75.179276,69.054291 
	C74.919640,60.989723 77.908119,54.331100 81.557495,48.424252 
	C93.925781,28.405087 112.023438,17.325684 135.821823,18.227257 
	C154.517853,18.935534 169.926392,27.279011 181.143082,42.640587 
	C186.300201,49.703430 190.242859,57.280006 191.043213,66.583115 
	C191.000000,67.000000 191.000000,67.000046 191.000000,67.000046 
z"/>
<path fill="#FFFFFF" opacity="1.000000" stroke="none" 
	d="
M125.002533,383.089233 
	C125.002533,380.948730 125.002533,379.296631 125.002533,377.323853 
	C130.216095,377.323853 135.284790,377.323853 140.997467,377.323853 
	C140.997467,378.902985 140.997482,380.658600 140.997482,382.414246 
	C140.997482,410.059875 140.947586,437.705719 141.044754,465.351013 
	C141.061676,470.164551 140.843689,474.627472 137.805435,478.791443 
	C135.774246,481.575287 134.696182,485.054596 133.253250,488.092804 
	C129.936981,479.090820 124.067986,470.977509 124.623253,459.501465 
	C125.845207,434.246490 125.002533,408.891663 125.002533,383.089233 
z"/>
<path fill="#F8E5D5" opacity="1.000000" stroke="none" 
	d="
M90.639122,394.002686 
	C90.639160,388.035736 90.639160,382.568024 90.639160,376.763397 
	C96.351128,376.763397 101.728874,376.763397 107.431740,376.763397 
	C107.431740,405.395782 107.431740,433.924561 107.431740,462.368439 
	C102.021713,462.368439 96.639053,462.368439 90.639084,462.368439 
	C90.639084,439.925446 90.639084,417.213715 90.639122,394.002686 
z"/>
<path fill="#FDE9D9" opacity="1.000000" stroke="none" 
	d="
M158.927673,394.001343 
	C158.927673,388.015472 158.927673,382.529144 158.927673,376.741089 
	C164.590271,376.741089 170.000275,376.741089 175.691040,376.741089 
	C175.691040,405.393066 175.691040,433.955780 175.691040,462.344604 
	C170.270691,462.344604 164.886978,462.344604 158.927673,462.344604 
	C158.927673,440.009033 158.927673,417.254974 158.927673,394.001343 
z"/>
<path fill="#F6E2D3" opacity="1.000000" stroke="none" 
	d="
M54.517113,266.357117 
	C55.524948,251.753250 56.389366,237.549881 57.266266,223.141403 
	C62.310200,223.141403 67.721001,223.141403 73.606506,223.141403 
	C72.855339,238.785782 75.627350,254.235214 68.449806,269.288788 
	C61.847057,283.136810 57.199093,297.916870 51.676205,312.322296 
	C46.366104,309.576202 45.102528,306.579498 46.472580,300.713135 
	C49.115425,289.396790 51.740974,278.076385 54.517113,266.357117 
z"/>
<path fill="#FCE8D8" opacity="1.000000" stroke="none" 
	d="
M192.996353,240.996353 
	C192.996353,234.857010 192.996353,229.216339 192.996353,223.251404 
	C198.573105,223.251404 203.969574,223.251404 210.035339,223.251404 
	C210.035339,227.977890 210.413712,232.931091 209.968796,237.809189 
	C208.189514,257.317719 214.445908,275.570496 218.421936,294.183990 
	C218.976425,296.779755 219.591415,299.363129 220.211426,301.944305 
	C221.333282,306.614594 219.660645,309.985168 215.254013,312.520874 
	C214.507065,310.897400 213.751205,309.463593 213.171341,307.961853 
	C207.497299,293.266602 202.221725,278.402618 196.046127,263.922119 
	C192.889099,256.519531 192.996506,249.101837 192.996353,240.996353 
z"/>
<path fill="#EEF7FC" opacity="1.000000" stroke="none" 
	d="
M150.262161,184.001556 
	C150.262161,188.484390 150.262161,192.467926 150.262161,196.824097 
	C138.990311,196.824097 127.816208,196.824097 116.375305,196.824097 
	C116.375305,188.262665 116.375305,179.691116 116.375305,170.545624 
	C127.411827,174.237534 138.445541,174.762680 150.262161,170.289764 
	C150.262161,175.120316 150.262161,179.311295 150.262161,184.001556 
z"/>
<path fill="#E7F0F5" opacity="1.000000" stroke="none" 
	d="
M73.537857,164.610580 
	C73.579178,178.472046 73.579178,191.887909 73.579178,205.602539 
	C65.963890,205.602539 58.743019,205.602539 50.841755,205.602539 
	C52.220737,200.708328 53.567657,195.887558 54.938118,191.073486 
	C56.931545,184.071091 58.817211,177.034653 60.982372,170.085510 
	C62.906990,163.908417 67.875580,161.679108 73.537857,164.610580 
z"/>
<path fill="#ECF6FB" opacity="1.000000" stroke="none" 
	d="
M192.995071,202.779572 
	C192.994736,189.374939 192.994736,176.451996 192.994736,163.575668 
	C200.957001,162.526825 203.951035,164.422363 206.032364,171.662994 
	C209.271744,182.932297 212.478500,194.210983 215.814163,205.888641 
	C208.689774,205.888641 202.060333,205.981720 195.440460,205.772461 
	C194.599823,205.745895 193.809204,204.137054 192.995071,202.779572 
z"/>
<path fill="#373737" opacity="1.000000" stroke="none" 
	d="
M186.948090,133.767334 
	C190.416626,129.175018 194.230240,124.797760 197.261810,119.933128 
	C200.654160,114.489555 203.337814,108.604347 206.580948,102.433571 
	C218.600403,110.336777 225.298157,121.554398 227.114777,137.345123 
	C219.840591,132.044739 213.425308,127.370193 206.311646,122.186760 
	C202.983597,127.172043 199.995071,131.648743 196.638245,136.457703 
	C193.162674,135.782425 190.055389,134.774872 186.948090,133.767334 
z"/>
<path fill="#373737" opacity="1.000000" stroke="none" 
	d="
M69.948532,136.799881 
	C67.098778,132.574341 64.377403,128.249771 61.270401,124.222710 
	C60.764278,123.566696 58.185387,123.687836 57.191311,124.367081 
	C51.750229,128.084854 46.504723,132.088867 41.096642,136.064621 
	C37.956245,127.077385 48.106552,109.330185 60.427711,102.605881 
	C64.684090,114.233513 71.466972,124.261765 79.602844,133.570831 
	C76.167755,134.923141 73.058144,135.861511 69.948532,136.799881 
z"/>
<path fill="#373737" opacity="1.000000" stroke="none" 
	d="
M172.730927,479.864899 
	C181.483215,484.163666 184.411011,488.492676 183.472824,495.689819 
	C172.833313,495.689819 162.155563,495.689819 151.527451,495.689819 
	C149.752670,484.811584 160.341568,476.867035 172.730927,479.864899 
z"/>
<path fill="#373737" opacity="1.000000" stroke="none" 
	d="
M108.879181,495.993042 
	C99.792778,495.993011 91.190521,495.993011 82.641998,495.993011 
	C81.964188,487.171417 89.377220,479.363739 98.201302,479.004700 
	C107.830849,478.612854 115.648865,485.903168 115.605194,495.993042 
	C113.533638,495.993042 111.448486,495.993042 108.879181,495.993042 
z"/>
<path fill="#FFFFFF" opacity="1.000000" stroke="none" 
	d="
M186.634415,133.921387 
	C190.055389,134.774872 193.162674,135.782425 196.657684,136.814056 
	C201.800659,140.519836 206.555954,144.201523 211.322235,148.305542 
	C211.198517,148.845581 211.063812,148.963257 210.929123,149.080917 
	C201.687790,144.175827 191.675446,146.485352 181.965485,146.023865 
	C178.500809,145.859192 175.021744,145.997467 171.009018,145.997467 
	C176.372040,141.821701 181.346390,137.948563 186.634415,133.921387 
z"/>
<path fill="#FFFFFF" opacity="1.000000" stroke="none" 
	d="
M69.632988,136.954346 
	C73.058144,135.861511 76.167755,134.923141 79.662560,133.899857 
	C85.076729,137.799667 90.105698,141.784409 96.190880,146.606033 
	C82.695572,146.606033 69.820320,146.606033 57.117172,146.606033 
	C60.706406,143.812012 65.011925,140.460403 69.632988,136.954346 
z"/>
<path fill="#FFFFFF" opacity="1.000000" stroke="none" 
	d="
M49.582893,152.439423 
	C50.249859,151.717148 51.068790,151.216339 51.887722,150.715515 
	C52.084946,150.968765 52.282173,151.222015 52.479401,151.475266 
	C51.933029,151.981888 51.386658,152.488510 50.457962,153.035629 
	C49.962044,152.937698 49.848450,152.799301 49.582893,152.439423 
z"/>
<path fill="#FFFFFF" opacity="1.000000" stroke="none" 
	d="
M55.092480,148.040253 
	C55.572369,148.599197 55.595516,149.173737 55.618664,149.748291 
	C55.020565,149.699554 54.422470,149.650833 53.824371,149.602112 
	C54.094826,149.086685 54.365284,148.571274 55.092480,148.040253 
z"/>
<path fill="#FFFFFF" opacity="1.000000" stroke="none" 
	d="
M211.548920,148.568420 
	C212.545837,148.814774 213.327026,149.220627 214.108231,149.626480 
	C214.049210,149.844879 213.990189,150.063278 213.931152,150.281677 
	C213.041290,150.111847 212.151413,149.942032 211.095337,149.426559 
	C211.063812,148.963257 211.198517,148.845581 211.548920,148.568420 
z"/>
<path fill="#373737" opacity="1.000000" stroke="none" 
	d="
M191.000000,67.000000 
	C191.127350,67.139168 191.254715,67.278343 191.382065,67.417519 
	C191.289490,67.373207 191.196899,67.328888 191.052155,67.142303 
	C191.000000,67.000046 191.000000,67.000000 191.000000,67.000000 
z"/>
<path fill="#4B6377" opacity="1.000000" stroke="none" 
	d="
M437.219513,292.735291 
	C440.667664,314.930084 444.042480,336.691772 447.483795,358.882202 
	C430.691254,358.882202 414.762726,358.882202 398.169373,358.882202 
	C398.169373,342.221771 398.169373,325.517761 398.169373,308.448425 
	C392.278839,308.448425 387.038025,308.448425 381.085693,308.448425 
	C381.085693,325.046631 381.085693,341.741516 381.085693,358.809143 
	C364.172974,358.809143 347.958893,358.809143 331.165985,358.809143 
	C332.145081,352.051544 333.051208,345.395416 334.081696,338.758575 
	C337.649597,315.779144 341.346375,292.819183 344.756500,269.816589 
	C345.230316,266.620392 346.222961,265.688110 349.379639,265.701263 
	C375.862610,265.811798 402.346466,265.803986 428.829559,265.708466 
	C431.812225,265.697662 433.487823,266.425415 433.901947,269.608459 
	C434.887817,277.185455 436.053253,284.739136 437.219513,292.735291 
z"/>
<path fill="#FDE9D9" opacity="1.000000" stroke="none" 
	d="
M373.039856,148.680328 
	C373.708435,138.060684 367.690002,133.467484 359.107941,128.881149 
	C342.638824,120.079941 333.455963,105.341499 330.243835,86.261848 
	C339.058563,86.261848 347.523865,85.859406 355.938232,86.342903 
	C375.403015,87.461372 391.503418,80.928932 404.317596,66.258263 
	C406.499603,63.760178 408.659821,61.243107 411.149323,58.365932 
	C419.893707,73.309830 431.961365,81.970207 448.176086,85.431747 
	C447.001343,96.792488 442.534210,106.579437 435.608429,115.308937 
	C429.821716,122.602669 422.662842,128.300888 414.078278,131.912735 
	C408.377258,134.311356 405.601166,138.195465 406.307892,144.292801 
	C406.686310,147.557648 405.076355,148.549179 402.400696,149.964966 
	C392.390533,155.261688 382.927765,152.889084 373.039856,148.680328 
z"/>
<path fill="#EEF7FC" opacity="1.000000" stroke="none" 
	d="
M431.968567,211.000046 
	C431.968567,223.638794 431.968567,235.777542 431.968567,248.176331 
	C420.542450,248.176331 409.471222,248.176331 397.961426,248.176331 
	C397.961426,228.557999 397.961426,208.968506 397.961426,189.094833 
	C392.132690,189.094833 386.734161,189.094833 380.848572,189.094833 
	C380.848572,208.712097 380.848572,228.286026 380.848572,248.146332 
	C369.306793,248.146332 358.244293,248.146332 346.918640,248.146332 
	C346.918640,228.225266 346.918640,208.453415 346.918640,187.868042 
	C350.614655,190.322464 353.952240,192.594406 357.345581,194.779785 
	C362.953094,198.391068 366.322845,198.066666 371.102112,193.348053 
	C377.131500,187.395157 383.082947,181.363342 389.385925,175.046997 
	C395.166779,180.916672 400.622589,186.504913 406.132935,192.038818 
	C412.679535,198.613434 415.119720,198.814758 422.982208,193.599426 
	C425.726349,191.779205 428.476990,189.968781 431.968567,187.662506 
	C431.968567,195.726288 431.968567,203.113174 431.968567,211.000046 
z"/>
<path fill="#373737" opacity="1.000000" stroke="none" 
	d="
M447.000000,66.999695 
	C435.104675,63.986156 428.319763,55.694496 424.090302,44.782719 
	C423.610809,43.545624 423.341797,42.227131 422.865234,40.988686 
	C420.407166,34.601093 413.854218,32.965900 408.836639,37.737610 
	C402.563110,43.703743 396.413330,49.813694 390.452667,56.091862 
	C381.815979,65.188560 371.529449,69.695641 358.850281,69.131821 
	C349.752197,68.727234 340.621613,69.053101 331.183685,69.053101 
	C330.914825,60.993206 333.915070,54.342957 337.553070,48.430115 
	C349.896118,28.369095 368.064941,17.356905 391.810150,18.247238 
	C410.464691,18.946699 425.923035,27.278618 437.143127,42.642265 
	C442.300476,49.704254 446.242279,57.280743 447.042725,66.583221 
	C447.000000,67.000000 447.000000,66.999695 447.000000,66.999695 
z"/>
<path fill="#FFFFFF" opacity="1.000000" stroke="none" 
	d="
M396.997070,459.989136 
	C399.506653,471.149292 392.762421,479.395905 389.610016,487.563873 
	C387.154236,483.484528 384.204803,478.654388 381.354309,473.766602 
	C380.978577,473.122284 381.016693,472.183502 381.016296,471.381073 
	C381.000854,440.101349 381.003174,408.821655 381.003174,377.272766 
	C386.318359,377.272766 391.387573,377.272766 396.997070,377.272766 
	C396.997070,404.667786 396.997070,432.079681 396.997070,459.989136 
z"/>
<path fill="#F8E5D5" opacity="1.000000" stroke="none" 
	d="
M363.752197,450.970703 
	C363.752197,455.109283 363.752197,458.754150 363.752197,462.361816 
	C358.063110,462.361816 352.691833,462.361816 346.978790,462.361816 
	C346.978790,434.157745 346.978790,405.657440 346.978790,376.788971 
	C352.304749,376.788971 357.679932,376.788971 363.752197,376.788971 
	C363.752197,401.375763 363.752197,425.926361 363.752197,450.970703 
z"/>
<path fill="#FDE9D9" opacity="1.000000" stroke="none" 
	d="
M431.968018,382.175842 
	C431.968018,409.287811 431.968018,435.922363 431.968018,462.344666 
	C426.243530,462.344666 420.851288,462.344666 415.192627,462.344666 
	C415.192627,434.170258 415.192627,405.581329 415.192627,376.714905 
	C420.629211,376.714905 426.048218,376.714905 431.968018,376.714905 
	C431.968018,378.475006 431.968018,380.086731 431.968018,382.175842 
z"/>
<path fill="#F6E3D4" opacity="1.000000" stroke="none" 
	d="
M324.021057,292.161438 
	C323.274323,297.029449 322.565887,301.460022 321.854889,305.906525 
	C313.831726,303.677063 308.414520,296.054291 308.678131,287.033661 
	C308.794403,283.055023 309.703979,279.104950 309.937500,275.123383 
	C310.833069,259.855408 311.611786,244.580444 312.401825,229.306427 
	C312.503296,227.344543 312.415680,225.372879 312.415680,223.162613 
	C318.260468,223.162613 323.674805,223.162613 329.084961,223.162613 
	C331.341431,246.405289 328.122314,269.095703 324.021057,292.161438 
z"/>
<path fill="#FCE9D9" opacity="1.000000" stroke="none" 
	d="
M455.826843,300.181091 
	C451.604523,274.493164 446.737671,249.290268 449.565399,223.192749 
	C454.694275,223.192749 460.096680,223.192749 466.033539,223.192749 
	C466.033539,228.478699 466.242767,233.763901 465.993530,239.027420 
	C465.303467,253.598434 467.288177,267.921631 469.608124,282.229828 
	C471.414429,293.370331 466.434357,302.730377 456.689941,305.966766 
	C456.415375,304.134369 456.151062,302.370392 455.826843,300.181091 
z"/>
<path fill="#E7F0F5" opacity="1.000000" stroke="none" 
	d="
M307.630981,205.731781 
	C310.587341,193.330139 313.723785,181.001297 317.449005,168.852951 
	C319.067169,163.575836 323.788269,162.598495 329.214081,163.244034 
	C329.214081,177.263260 329.214081,191.252457 329.214081,205.877808 
	C322.168274,205.877808 315.109100,205.877808 307.630981,205.731781 
z"/>
<path fill="#ECF6FB" opacity="1.000000" stroke="none" 
	d="
M469.955566,199.224243 
	C470.522430,201.543137 471.009033,203.446091 471.634064,205.890350 
	C467.578125,205.890350 463.970032,205.890366 460.361938,205.890366 
	C456.733459,205.890366 453.104980,205.890350 449.241760,205.890350 
	C449.241760,191.579880 449.241760,177.649384 449.241760,163.710449 
	C456.192657,162.259232 459.944855,164.366257 461.896698,171.024567 
	C464.607178,180.270874 467.220428,189.545685 469.955566,199.224243 
z"/>
<path fill="#373737" opacity="1.000000" stroke="none" 
	d="
M366.778259,495.992371 
	C357.040955,495.992371 347.776428,495.992371 338.550995,495.992371 
	C338.143341,486.694733 345.680939,479.104767 354.796997,479.002228 
	C364.242279,478.895935 371.830658,486.285004 371.557495,495.718903 
	C370.146667,495.808502 368.698853,495.900421 366.778259,495.992371 
z"/>
<path fill="#373737" opacity="1.000000" stroke="none" 
	d="
M407.691040,495.538544 
	C406.607849,488.616547 410.534851,482.703491 417.480133,480.009186 
	C423.925537,477.508820 432.465759,479.582397 436.348755,485.143524 
	C438.320953,487.968109 439.343811,491.455566 441.317902,495.789520 
	C429.155975,495.789520 418.602356,495.789520 407.691040,495.538544 
z"/>
<path fill="#E8F2F7" opacity="1.000000" stroke="none" 
	d="
M351.579041,170.424530 
	C349.049042,168.520111 345.425507,167.755249 347.030487,163.289139 
	C355.765930,162.708755 364.571381,162.300171 372.656860,167.010559 
	C369.185791,170.323410 365.756134,173.596725 361.934235,177.244400 
	C358.975067,175.304245 355.421295,172.974228 351.579041,170.424530 
z"/>
<path fill="#EAF4F8" opacity="1.000000" stroke="none" 
	d="
M431.907837,166.333237 
	C426.741760,170.339554 421.635498,173.944077 416.389069,177.647552 
	C412.799103,173.948624 409.431732,170.479095 406.057007,167.001938 
	C413.550934,162.320160 422.005280,162.905228 430.365906,163.200226 
	C430.931274,163.220169 431.435211,164.980515 431.907837,166.333237 
z"/>
<path fill="#373737" opacity="1.000000" stroke="none" 
	d="
M447.000000,67.000153 
	C447.127106,67.139221 447.254211,67.278145 447.381317,67.417068 
	C447.289001,67.372627 447.196655,67.328194 447.052185,67.141731 
	C447.000000,66.999695 447.000000,67.000000 447.000000,67.000153 
z"/>
</svg>