<svg version="1.1" id="Layer_1" xmlns="http://www.w3.org/2000/svg" xmlns:xlink="http://www.w3.org/1999/xlink" x="0px" y="0px"
	 width="100%" viewBox="0 0 96 96" enable-background="new 0 0 96 96" xml:space="preserve">
<path fill="#000000" opacity="1.000000" stroke="none" 
	d="
M63.000000,97.000000 
	C42.000000,97.000000 21.500000,97.000000 1.000000,97.000000 
	C1.000000,65.000000 1.000000,33.000000 1.000000,1.000000 
	C33.000000,1.000000 65.000000,1.000000 97.000000,1.000000 
	C97.000000,33.000000 97.000000,65.000000 97.000000,97.000000 
	C85.833336,97.000000 74.666664,97.000000 63.000000,97.000000 
M38.973175,60.790474 
	C38.927742,61.523586 38.882309,62.256702 38.063450,62.993576 
	C35.598106,63.709450 32.873524,63.977730 30.716972,65.226761 
	C24.720234,68.699944 18.392883,72.065536 17.024076,80.870583 
	C16.958693,89.226349 16.958704,89.226654 25.498583,88.902756 
	C25.664099,88.896484 25.828346,88.856735 26.921787,88.975212 
	C43.202934,88.982040 59.486004,88.854156 75.763931,89.086632 
	C80.048553,89.147812 81.092186,87.638527 81.109085,83.610039 
	C81.131706,78.215706 79.414345,74.014336 74.752617,70.273857 
	C69.556519,67.844383 64.360420,65.414917 59.030476,62.262772 
	C59.068680,61.531044 59.106888,60.799320 59.759487,59.808861 
	C62.561752,56.137039 67.940323,54.012314 67.000641,47.179996 
	C70.507744,43.559513 70.904839,39.513340 68.751961,35.053555 
	C68.487419,34.505550 68.665138,33.744057 68.950249,32.276276 
	C68.998428,30.549046 69.046608,28.821814 69.811165,26.972712 
	C72.862572,25.675905 75.913971,24.379101 78.990570,24.008018 
	C78.882484,29.477343 80.205650,35.538372 78.258789,40.247509 
	C76.359077,44.842606 77.587982,46.969650 80.771179,49.832722 
	C81.803581,47.045120 82.365234,44.218391 82.374908,41.389782 
	C82.380455,39.769577 81.123291,38.158161 81.070221,36.522175 
	C80.914116,31.709536 81.075516,26.886597 81.868256,21.962633 
	C83.789574,19.657806 83.389305,18.127806 80.519073,16.974091 
	C71.457993,13.331915 62.511791,9.393104 53.375641,5.955793 
	C50.926750,5.034445 47.630547,4.605289 45.286709,5.472633 
	C35.700062,9.020195 26.314356,13.117036 16.911772,17.144938 
	C16.071627,17.504843 15.237790,18.787724 15.153252,19.710838 
	C15.087681,20.426838 16.032434,21.609648 16.811232,21.965767 
	C20.792084,23.786076 24.864828,25.405426 28.985680,27.950912 
	C29.096254,29.652679 29.206829,31.354446 29.241203,33.916321 
	C28.836395,35.950058 27.833374,38.089264 28.168922,39.992470 
	C28.655441,42.751976 30.109272,45.340935 31.017885,48.780033 
	C30.835384,54.484898 35.632500,56.728008 38.973175,60.790474 
z"/>
<path fill="#5059C9" opacity="1.000000" stroke="none" 
	d="
M28.905436,27.095055 
	C24.864828,25.405426 20.792084,23.786076 16.811232,21.965767 
	C16.032434,21.609648 15.087681,20.426838 15.153252,19.710838 
	C15.237790,18.787724 16.071627,17.504843 16.911772,17.144938 
	C26.314356,13.117036 35.700062,9.020195 45.286709,5.472633 
	C47.630547,4.605289 50.926750,5.034445 53.375641,5.955793 
	C62.511791,9.393104 71.457993,13.331915 80.519073,16.974091 
	C83.389305,18.127806 83.789574,19.657806 81.197731,22.084709 
	C80.006592,22.498623 79.485985,22.790459 78.965378,23.082294 
	C75.913971,24.379101 72.862572,25.675905 69.424339,26.634924 
	C69.301994,22.431065 66.769485,20.624901 63.618958,20.530304 
	C53.940914,20.239717 44.244324,20.213024 34.565620,20.476259 
	C30.809265,20.578424 28.537378,22.957834 28.905436,27.095055 
z"/>
<path fill="#7B83EA" opacity="1.000000" stroke="none" 
	d="
M28.945557,27.522984 
	C28.537378,22.957834 30.809265,20.578424 34.565620,20.476259 
	C44.244324,20.213024 53.940914,20.239717 63.618958,20.530304 
	C66.769485,20.624901 69.301994,22.431065 69.066147,26.695860 
	C69.046608,28.821814 68.998428,30.549046 68.411148,32.690517 
	C66.605301,33.200722 65.338570,33.296684 63.703407,33.361851 
	C61.892586,33.616024 60.450180,33.900993 58.661247,34.161152 
	C57.213169,34.476837 56.111622,34.817337 54.642319,35.166187 
	C50.507973,37.247417 46.747894,36.409927 42.669235,35.014206 
	C41.230381,34.648056 40.111053,34.417011 38.641258,34.075485 
	C36.836185,33.775528 35.381577,33.586056 33.555576,33.286850 
	C31.895254,33.136818 30.606329,33.096516 29.317402,33.056213 
	C29.206829,31.354446 29.096254,29.652679 28.945557,27.522984 
z"/>
<path fill="#515ACB" opacity="1.000000" stroke="none" 
	d="
M75.046753,70.889587 
	C79.414345,74.014336 81.131706,78.215706 81.109085,83.610039 
	C81.092186,87.638527 80.048553,89.147812 75.763931,89.086632 
	C59.486004,88.854156 43.202934,88.982040 26.643593,88.626373 
	C32.968948,85.836815 39.549191,83.330589 46.181595,80.970978 
	C55.783520,77.554878 65.423187,74.244858 75.046753,70.889587 
z"/>
<path fill="#545DD2" opacity="1.000000" stroke="none" 
	d="
M74.899689,70.581726 
	C65.423187,74.244858 55.783520,77.554878 46.181595,80.970978 
	C39.549191,83.330589 32.968948,85.836815 26.179291,88.555061 
	C25.828346,88.856735 25.664099,88.896484 25.498583,88.902756 
	C16.958704,89.226654 16.958693,89.226349 17.475451,80.383553 
	C25.429014,77.700615 32.962700,75.603088 40.405186,73.220680 
	C41.791206,72.777008 42.810810,71.188675 44.393654,70.163437 
	C52.602734,72.086815 56.736683,70.012787 59.164322,62.985443 
	C64.360420,65.414917 69.556519,67.844383 74.899689,70.581726 
z"/>
<path fill="#EAAD2B" opacity="1.000000" stroke="none" 
	d="
M29.279303,33.486267 
	C30.606329,33.096516 31.895254,33.136818 33.561821,33.717262 
	C33.945427,35.582863 33.940723,36.908474 33.959126,38.233765 
	C34.057198,45.295784 37.799999,50.601082 44.333755,52.949944 
	C50.356644,55.115154 56.432442,52.969654 61.135342,47.591583 
	C64.893654,43.293701 63.806965,38.265308 64.071831,33.392647 
	C65.338570,33.296684 66.605301,33.200722 68.254974,33.093128 
	C68.665138,33.744057 68.487419,34.505550 68.751961,35.053555 
	C70.904839,39.513340 70.507744,43.559513 66.612221,47.700665 
	C65.302773,48.898880 64.289970,49.481380 63.474735,50.268497 
	C54.006535,59.410099 44.122322,59.486771 34.737385,50.521008 
	C33.692986,49.523254 32.353275,48.834625 31.150520,48.002636 
	C30.109272,45.340935 28.655441,42.751976 28.168922,39.992470 
	C27.833374,38.089264 28.836395,35.950058 29.279303,33.486267 
z"/>
<path fill="#5861DA" opacity="1.000000" stroke="none" 
	d="
M43.999519,70.128616 
	C42.810810,71.188675 41.791206,72.777008 40.405186,73.220680 
	C32.962700,75.603088 25.429014,77.700615 17.546896,79.944443 
	C18.392883,72.065536 24.720234,68.699944 30.716972,65.226761 
	C32.873524,63.977730 35.598106,63.709450 38.544968,63.339592 
	C40.684166,65.833275 42.341843,67.980949 43.999519,70.128616 
z"/>
<path fill="#F1B624" opacity="1.000000" stroke="none" 
	d="
M31.084202,48.391335 
	C32.353275,48.834625 33.692986,49.523254 34.737385,50.521008 
	C44.122322,59.486771 54.006535,59.410099 63.474735,50.268497 
	C64.289970,49.481380 65.302773,48.898880 66.536560,48.111938 
	C67.940323,54.012314 62.561752,56.137039 59.079643,60.007889 
	C51.859634,63.813499 45.352142,63.022789 38.860771,60.061756 
	C35.632500,56.728008 30.835384,54.484898 31.084202,48.391335 
z"/>
<path fill="#D4A025" opacity="1.000000" stroke="none" 
	d="
M38.916973,60.426117 
	C45.352142,63.022789 51.859634,63.813499 58.772446,60.137253 
	C59.106888,60.799320 59.068680,61.531044 59.097397,62.624107 
	C56.736683,70.012787 52.602734,72.086815 44.393654,70.163437 
	C42.341843,67.980949 40.684166,65.833275 38.931686,63.337708 
	C38.882309,62.256702 38.927742,61.523586 38.916973,60.426117 
z"/>
<path fill="#3942AC" opacity="1.000000" stroke="none" 
	d="
M78.977974,23.545156 
	C79.485985,22.790459 80.006592,22.498623 80.819908,22.137238 
	C81.075516,26.886597 80.914116,31.709536 81.070221,36.522175 
	C81.123291,38.158161 82.380455,39.769577 82.374908,41.389782 
	C82.365234,44.218391 81.803581,47.045120 80.771179,49.832722 
	C77.587982,46.969650 76.359077,44.842606 78.258789,40.247509 
	C80.205650,35.538372 78.882484,29.477343 78.977974,23.545156 
z"/>
<path fill="#F6C13D" opacity="1.000000" stroke="none" 
	d="
M63.703407,33.361851 
	C63.806965,38.265308 64.893654,43.293701 61.135342,47.591583 
	C56.432442,52.969654 50.356644,55.115154 44.333755,52.949944 
	C37.799999,50.601082 34.057198,45.295784 33.959126,38.233765 
	C33.940723,36.908474 33.945427,35.582863 33.933220,33.826992 
	C35.381577,33.586056 36.836185,33.775528 38.550583,34.439209 
	C37.673740,40.845818 39.058239,44.916248 43.430542,47.458031 
	C47.353054,49.738338 51.457638,49.730095 55.177086,47.025547 
	C59.626408,43.790283 60.731018,39.361710 59.007778,34.185963 
	C60.450180,33.900993 61.892586,33.616024 63.703407,33.361851 
z"/>
<path fill="#FAC646" opacity="1.000000" stroke="none" 
	d="
M58.661247,34.161152 
	C60.731018,39.361710 59.626408,43.790283 55.177086,47.025547 
	C51.457638,49.730095 47.353054,49.738338 43.430542,47.458031 
	C39.058239,44.916248 37.673740,40.845818 38.901051,34.549686 
	C40.111053,34.417011 41.230381,34.648056 42.589432,35.355431 
	C41.700047,39.323330 42.849850,42.315662 45.899685,43.796104 
	C47.643597,44.642628 50.538254,44.588757 52.262890,43.689716 
	C55.556023,41.973042 56.262104,38.710339 55.010078,35.157833 
	C56.111622,34.817337 57.213169,34.476837 58.661247,34.161152 
z"/>
<path fill="#FBCA51" opacity="1.000000" stroke="none" 
	d="
M54.642319,35.166187 
	C56.262104,38.710339 55.556023,41.973042 52.262890,43.689716 
	C50.538254,44.588757 47.643597,44.642628 45.899685,43.796104 
	C42.849850,42.315662 41.700047,39.323330 42.908958,35.490532 
	C46.747894,36.409927 50.507973,37.247417 54.642319,35.166187 
z"/>
</svg>